<svg width="66" height="46" viewBox="0 0 66 46" fill="none" xmlns="http://www.w3.org/2000/svg">
<path d="M17.3988 32.2495C17.1644 32.2431 16.9299 32.2528 16.6969 32.2784C15.5277 32.4131 14.4474 32.9669 13.657 33.8367C12.8667 34.7065 12.4201 35.8332 12.4005 37.0069C12.3808 38.1806 12.7894 39.3215 13.5502 40.2172C14.311 41.1129 15.3722 41.7023 16.5362 41.8759C16.7282 41.9024 16.9214 41.9193 17.1151 41.9264C20.7578 42.166 22.3874 39.5404 22.4554 37.2424C22.5133 35.1378 21.1037 32.3606 17.3988 32.2495Z" fill="#12172E"/>
<path d="M5.35779 32.7143C5.35779 32.7143 5.67328 34.7943 7.03947 35.122C8.40565 35.4496 18.8691 35.6993 18.8691 35.6993L18.6419 31.4412L5.35779 32.7143Z" fill="#12172E"/>
<path d="M49.8225 33.2773L18.0601 32.238L17.5739 35.6691C17.5739 35.6691 43.1449 36.5683 47.5141 36.1916C51.8833 35.8148 49.8225 33.2773 49.8225 33.2773Z" fill="#415D82"/>
<path d="M26.9866 21.1912H27.0402C27.0402 21.1912 21.5726 21.0758 17.0297 20.7582C16.09 20.7268 15.189 20.3771 14.4753 19.7666C14.5854 15.9745 14.9125 12.1918 15.4551 8.43693C15.5145 8.02988 15.5998 7.58097 15.9269 7.33125C16.1628 7.15082 16.4754 7.11474 16.7706 7.08298C20.1528 6.73222 23.5364 6.38291 27.6162 7.12628C27.0387 11.1881 26.7377 16.7194 26.9866 21.1912Z" fill="#3B1C21"/>
<path d="M28.6321 22.4384C28.6236 22.1138 28.4903 21.8048 28.2596 21.5756C28.029 21.3464 27.7188 21.2144 27.3933 21.2071C27.2862 21.2071 27.1733 21.2071 27.0402 21.1956C27.0402 21.1956 21.5725 21.0801 17.0297 20.7625C16.0894 20.73 15.1884 20.3786 14.4753 19.7666C14.3578 23.7862 14.4844 27.8092 14.8545 31.8136C19.2931 32.2351 23.3208 32.4256 28.2746 32.5728C28.5366 28.5182 28.7247 25.4971 28.6321 22.4384Z" fill="#E0771B"/>
<path d="M26.632 32.9972C26.632 32.9972 20.2946 35.4857 18.9617 35.4511C17.9617 35.4208 17.7142 30.1464 17.6592 27.5121C17.6375 26.646 17.6389 26.0586 17.6389 26.0586C17.6389 26.0586 26.0488 26.0196 26.5828 26.7067C26.6185 26.7596 26.6463 26.8175 26.6653 26.8784C27.0503 28.0794 26.632 32.9972 26.632 32.9972Z" fill="#A12848"/>
<path d="M26.6537 26.8828C26.4468 26.7211 26.1486 26.7471 25.8795 26.7384C25.1168 26.7153 19.7635 27.2869 17.6491 27.515C17.6274 26.6489 17.6288 26.0614 17.6288 26.0614C17.6288 26.0614 26.0387 26.0225 26.5727 26.7095C26.6086 26.7627 26.6359 26.8212 26.6537 26.8828Z" fill="#DE5D66"/>
<path d="M63.4785 38.0233C63.4104 40.3227 61.7809 42.9469 58.1382 42.7059C57.9443 42.7018 57.7509 42.6849 57.5593 42.6553C56.3956 42.4818 55.3348 41.8925 54.5742 40.9971C53.8137 40.1017 53.4052 38.9612 53.4249 37.7878C53.4445 36.6145 53.8909 35.4882 54.681 34.6186C55.4711 33.749 56.5511 33.1954 57.7199 33.0607C57.9528 33.0337 58.1875 33.024 58.4218 33.0319C62.1311 33.143 63.5363 35.9216 63.4785 38.0233Z" fill="#212D4A"/>
<path d="M62.2759 37.9915C62.2136 40.0744 60.5623 42.4172 57.5637 42.6568C56.4 42.4833 55.3392 41.894 54.5786 40.9986C53.8181 40.1031 53.4096 38.9626 53.4293 37.7893C53.4489 36.6159 53.8953 35.4896 54.6854 34.62C55.4755 33.7505 56.5555 33.1968 57.7243 33.0622C60.833 33.5342 62.3337 36.0544 62.2759 37.9915Z" fill="#2B3B59"/>
<path d="M57.8083 41.3836C59.7609 41.3836 61.3439 39.8049 61.3439 37.8573C61.3439 35.9098 59.7609 34.331 57.8083 34.331C55.8556 34.331 54.2727 35.9098 54.2727 37.8573C54.2727 39.8049 55.8556 41.3836 57.8083 41.3836Z" fill="#82A1B8"/>
<path d="M57.5303 39.7858C58.6022 39.7858 59.4711 38.9191 59.4711 37.8501C59.4711 36.7811 58.6022 35.9144 57.5303 35.9144C56.4585 35.9144 55.5896 36.7811 55.5896 37.8501C55.5896 38.9191 56.4585 39.7858 57.5303 39.7858Z" fill="#AECAD6"/>
<path d="M54.9978 32.5036L56.8199 38.1229C56.846 38.2037 56.889 38.2781 56.9461 38.341C57.0032 38.404 57.0731 38.4541 57.1511 38.4881C57.2291 38.5221 57.3134 38.5392 57.3986 38.5382C57.4837 38.5372 57.5676 38.5181 57.6448 38.4823C57.775 38.4218 57.8792 38.3168 57.9384 38.1862C57.9976 38.0556 58.008 37.9082 57.9675 37.7707L56.3944 32.4126" fill="#131C3B"/>
<path d="M63.4351 34.1087C61.5248 32.6652 58.804 32.723 56.7229 33.387C56.4728 33.4687 56.2278 33.5651 55.9891 33.6756C54.458 34.3786 53.8183 35.5031 53.0628 36.9321C52.1482 35.6647 52.1496 33.2628 53.9138 31.5913C55.2901 30.2922 57.2815 29.6051 59.147 29.9414H59.1759C59.2801 29.9588 59.3843 29.9819 59.4856 30.0064C60.2488 30.2015 60.9605 30.559 61.572 31.0543C62.1836 31.5496 62.6804 32.1711 63.0284 32.876C63.2212 33.2659 63.3581 33.6808 63.4351 34.1087Z" fill="#E5804E"/>
<path d="M59.1469 29.9313C58.3659 30.0681 57.6418 30.4287 57.0629 30.9692C56.7039 31.3178 56.4228 31.738 56.2377 32.2024C56.0527 32.6667 55.9679 33.1648 55.9891 33.6641C54.4579 34.3656 53.8182 35.4915 53.0628 36.9191C52.1481 35.6517 52.1481 33.2498 53.9123 31.5783C55.2872 30.2792 57.2814 29.5965 59.1469 29.9313Z" fill="#C16B46"/>
<path d="M63.0284 32.8716C62.6575 32.5766 62.2398 32.3453 61.7925 32.1874C60.6738 31.7876 59.4625 31.7732 58.2815 31.6346C58.0167 31.6043 57.6925 31.5162 57.6346 31.255C57.5912 31.0529 57.7402 30.8638 57.8893 30.7195C58.2582 30.3702 58.6972 30.103 59.1773 29.9357C59.2815 29.953 59.3857 29.9761 59.4871 30.0006C60.25 30.1962 60.9614 30.5541 61.5727 31.0497C62.184 31.5452 62.6805 32.1667 63.0284 32.8716Z" fill="#FCB19F"/>
<path d="M40.5113 6.11751L40.0013 23.2552L40.7666 23.2779L41.2766 6.14017L40.5113 6.11751Z" fill="#131C3B"/>
<path d="M39.8857 20.5287L39.4733 34.165L45.5835 34.1491C45.5835 34.1491 45.7513 24.657 45.6168 24.2932C45.556 24.133 41.113 24.0233 41.113 24.0233L41.1043 20.5403L39.8857 20.5287Z" fill="#CC6A14"/>
<path d="M31.9159 24.8201L31.3818 22.6693L40.0174 21.7282L40.4487 26.9607L32.1633 27.5929L31.9159 24.8201Z" fill="#E0771B"/>
<path d="M43.6239 33.8994L36.6078 35.669L32.4007 35.5247L32.172 28.1949L31.9622 27.297C31.9622 27.297 32.8537 27.1715 33.981 27.0228C35.6729 26.799 37.9001 26.5219 38.453 26.5378C39.3734 26.5638 43.6833 26.5464 43.7715 26.8741C43.785 26.9557 43.7918 27.0382 43.7918 27.1209C43.8439 28.319 43.6239 33.8994 43.6239 33.8994Z" fill="#A12848"/>
<path d="M43.8078 27.7748L36.2503 28.4518L34.8885 28.5586L33.9825 27.0141C35.6744 26.7904 37.9016 26.5132 38.4545 26.5291C39.3749 26.5551 43.6848 26.5378 43.773 26.8655C43.7832 26.9015 43.802 27.6435 43.8078 27.7748Z" fill="#DE5D66"/>
<path d="M31.9388 8.1368L31.4288 25.2745L32.1941 25.2972L32.704 8.15945L31.9388 8.1368Z" fill="#2B3B59"/>
<path d="M31.3124 22.5481L30.9839 35.9C32.1981 35.9837 35.6251 36.1266 37.0145 36.0198C37.0145 36.0198 37.178 26.6778 37.0405 26.3155C36.9812 26.1553 32.5368 26.0456 32.5368 26.0456L32.5281 22.5625L31.3124 22.5481Z" fill="#FDBF4C"/>
<path d="M58.5 25.4523C58.5 27.1513 58.458 28.511 58.458 28.511C58.458 28.511 55.7083 29.9357 54.0382 32.4083C52.3681 34.8809 52.1785 36.001 51.2117 36.3908C51.0482 36.4586 50.5272 36.5135 49.7544 36.5553C45.98 36.7632 36.1808 36.6997 32.3876 36.5856C27.8202 36.4514 17.1078 35.9289 16.1787 35.7787C15.2495 35.6286 15.1656 32.4906 10.2624 32.1297C6.34474 31.841 4.88304 34.6889 4.6182 35.5276L3.13045 35.0411C3.16171 34.6271 3.22902 34.2166 3.33161 33.8142C3.18689 33.3898 3.05085 32.6927 2.99875 31.561C2.96112 30.7584 3.12466 28.472 3.417 25.6111C3.55014 24.312 3.70644 22.8888 3.88735 21.4352C10.3101 22.0703 17.7894 22.0905 19.8778 22.0804H20.4436L20.4654 22.0559C20.7735 22.0837 21.0671 22.1993 21.3111 22.3889C21.5552 22.5786 21.7393 22.8343 21.8417 23.1255C22.1311 23.9194 21.9531 30.6458 21.8518 33.781C21.8446 33.9759 21.8388 34.1563 21.8359 34.3209C21.8127 34.9805 21.7968 35.3818 21.7968 35.3818C27.6233 35.988 39.0941 36.1382 46.158 35.9938C46.3461 35.0931 46.5068 34.1361 46.6399 33.1445C47.1696 29.2789 47.3332 24.8403 47.336 20.8304C47.336 20.686 47.336 20.5518 47.336 20.4147C47.3216 14.1212 46.9178 8.9869 46.9178 8.9869H46.8107L46.8903 8.91184C47.0775 8.57371 47.296 8.25379 47.543 7.95628C48.2058 7.15516 49.0886 6.48396 49.8991 6.36848C50.4076 6.6194 50.8563 6.97627 51.2146 7.41498C51.2768 7.49149 51.3318 7.55933 51.3868 7.64016C51.4187 7.68491 51.4476 7.72821 51.4795 7.77152C51.6488 8.0169 51.8007 8.26085 51.9932 8.49324C52.617 9.24239 55.6185 13.7936 57.2655 17.2146C57.305 17.2935 57.3427 17.3729 57.3784 17.4527L57.4449 17.5971C57.8791 18.5281 58.1917 19.3537 58.306 19.9701C58.322 20.0625 58.3364 20.1505 58.3466 20.2357C58.3466 20.2516 58.3466 20.2689 58.3466 20.2848L58.3596 20.406C58.4016 20.8939 58.4291 21.467 58.4522 22.0746C58.4942 23.1587 58.5029 24.3726 58.5 25.4523Z" fill="#E5804E"/>
<path d="M21.8562 33.7781C21.849 33.973 21.8432 34.1534 21.8403 34.318L21.163 34.1101C21.4719 31.2199 21.543 28.3093 21.3758 25.4076C21.3237 24.5141 21.231 23.5729 20.7129 22.844C20.49 22.5375 20.2081 22.2785 19.8837 22.0818H20.4495L20.4712 22.0573C20.7794 22.0851 21.073 22.2007 21.317 22.3904C21.561 22.58 21.7452 22.8357 21.8476 23.1269C22.1341 23.9165 21.9575 30.6429 21.8562 33.7781Z" fill="#FCB19F"/>
<path opacity="0.6" d="M58.4581 28.511C58.4581 28.511 55.7084 29.9357 54.0368 32.4083C52.3653 34.8809 52.1771 36.001 51.2118 36.3908C51.0483 36.4586 50.5273 36.5135 49.7545 36.5568C45.9801 36.7646 36.1809 36.7011 32.3877 36.5871C27.8188 36.4528 17.1079 35.9303 16.1787 35.7802C15.2496 35.6301 15.1657 32.492 10.2625 32.1311C6.34483 31.8425 4.88313 34.6889 4.61828 35.5276L3.13198 35.0426C3.16224 34.6281 3.22907 34.217 3.3317 33.8142C3.18697 33.3898 3.05093 32.6926 2.99883 31.561C2.96121 30.7584 3.12619 28.472 3.41708 25.6111C3.69117 25.8894 3.99552 26.1363 4.3245 26.3472C5.78764 27.2783 7.56339 27.5554 9.2856 27.7748C11.0078 27.9942 12.7778 28.1891 14.3176 28.9902C16.1831 29.9588 17.5232 31.7183 19.3337 32.7865C20.1181 33.245 20.9691 33.5796 21.8562 33.7781C21.8258 34.751 21.8012 35.3775 21.8012 35.3775C27.6278 35.9837 39.0985 36.1324 46.1624 35.9895C46.3506 35.0888 46.5098 34.1332 46.6444 33.1401C47.956 32.9023 49.2307 32.4942 50.4361 31.9262C54.3899 30.0396 57.0716 26.2866 58.4566 22.0703C58.5536 24.8807 58.4581 28.511 58.4581 28.511Z" fill="#C16B46"/>
<path d="M58.5 25.4523C57.2465 27.6839 55.4686 29.5785 53.3189 30.9735C54.0821 29.1894 54.8453 27.4048 55.6084 25.6198C54.345 25.4119 53.4767 25.2286 52.6807 24.8807C52.4115 24.7652 52.1018 24.5242 52.2002 24.247C52.2697 24.0536 52.5027 23.9814 52.7024 23.9352L55.1945 23.3579C55.3734 22.2375 55.422 21.1002 55.3393 19.9687C54.5208 15.1529 52.0745 10.7616 48.407 7.52469C48.0907 7.59934 47.7944 7.74168 47.5387 7.94184C48.2015 7.14073 49.0843 6.46953 49.8948 6.35405C50.4033 6.60496 50.8519 6.96184 51.2103 7.40055C51.2725 7.47705 51.3275 7.54489 51.3825 7.62573C51.4144 7.67047 51.4433 7.71378 51.4752 7.75708C51.6445 8.00247 51.7964 8.24641 51.9889 8.47881C52.6127 9.22796 55.6142 13.7791 57.2612 17.2001C57.3007 17.28 57.3384 17.3594 57.3741 17.4383L57.4406 17.5826C57.8748 18.5137 58.1874 19.3393 58.3017 19.9557C58.3177 20.048 58.3321 20.1361 58.3423 20.2213C58.3423 20.2371 58.3423 20.2545 58.3423 20.2703L58.3553 20.3916C58.3973 20.8795 58.4248 21.4525 58.4465 22.0602C58.4942 23.1587 58.5029 24.3726 58.5 25.4523Z" fill="#FCB19F"/>
<path d="M58.458 28.511C58.458 28.511 55.7083 29.9357 54.0367 32.4083C52.3652 34.8809 52.1771 36.001 51.2118 36.3908C51.0482 36.4586 50.5272 36.5135 49.7544 36.5568C53.1409 34.4132 57.7359 26.6792 57.7518 20.484C57.9606 20.4403 58.163 20.3699 58.3538 20.2747C58.6056 22.9667 58.458 28.511 58.458 28.511Z" fill="#2B3B59"/>
<path d="M58.3654 20.4017C57.6997 20.7077 56.9037 20.7698 56.1728 20.8001C53.4376 20.9112 50.6734 20.9257 47.9236 20.8448L47.3361 20.8261C47.3361 20.6817 47.3361 20.5475 47.3361 20.4103C50.2595 20.5114 53.2248 20.5042 56.1497 20.3858C56.8849 20.3569 57.6837 20.292 58.3046 19.9643C58.322 20.0581 58.335 20.1462 58.3437 20.2299C58.3437 20.2472 58.3437 20.2631 58.3437 20.2804C58.3543 20.3199 58.3615 20.3603 58.3654 20.4017Z" fill="#131C3B"/>
<path d="M55.6216 21.4641C55.5742 21.4331 55.5288 21.3994 55.4855 21.363C55.3516 21.2541 55.18 21.2023 55.0079 21.2187C53.9804 21.3197 52.8834 21.3443 51.8125 21.363C51.6657 21.3658 51.5251 21.4228 51.4181 21.5231C51.3112 21.6234 51.2454 21.7598 51.2336 21.9058C51.213 22.2197 51.2236 22.535 51.2654 22.8469C51.2841 22.9802 51.3475 23.1032 51.4453 23.196C51.543 23.2887 51.6694 23.3458 51.8038 23.3579C53.028 23.4885 54.2649 23.4369 55.4739 23.2049C55.5532 23.1883 55.6269 23.1518 55.688 23.0987C55.7491 23.0456 55.7955 22.9778 55.8227 22.9017C55.9921 22.4225 56.1151 21.7672 55.6216 21.4641Z" fill="#2B3B59"/>
<path d="M51.4058 22.6102C51.4058 22.4413 51.4058 22.2681 51.4159 22.0833C51.423 21.9232 51.4919 21.7721 51.6081 21.6615C51.7244 21.551 51.879 21.4895 52.0396 21.49C53.112 21.4973 54.1902 21.4424 55.2887 21.3572C55.3708 21.3506 55.4535 21.3603 55.5318 21.3858C55.6102 21.4113 55.6827 21.4521 55.7451 21.5058C55.8074 21.5596 55.8584 21.6252 55.8951 21.6988C55.9318 21.7724 55.9534 21.8526 55.9587 21.9346C55.9703 22.1021 55.9776 22.2724 55.9805 22.4427C55.985 22.5908 55.9364 22.7357 55.8432 22.8511C55.75 22.9665 55.6185 23.0449 55.4725 23.0721C54.3188 23.2481 53.1496 23.3008 51.9847 23.2294C51.828 23.2171 51.6816 23.1467 51.5744 23.0321C51.4673 22.9174 51.4071 22.7669 51.4058 22.6102Z" fill="#E85C20"/>
<path d="M51.6316 22.5596C51.6229 22.4442 51.6185 22.3258 51.6185 22.2089C51.6209 22.132 51.6387 22.0564 51.6708 21.9865C51.7029 21.9166 51.7486 21.8538 51.8054 21.8018C51.8621 21.7497 51.9287 21.7095 52.0013 21.6835C52.0738 21.6575 52.1508 21.6462 52.2278 21.6503C52.7387 21.6503 53.251 21.6243 53.7575 21.6503C53.4797 22.525 54.0122 22.8527 54.4811 23.0259C53.7568 23.1159 53.0271 23.156 52.2973 23.1457C52.1321 23.1519 51.9709 23.0945 51.847 22.9854C51.7231 22.8763 51.6459 22.7239 51.6316 22.5596Z" fill="#CC2E0E"/>
<path d="M55.2379 21.555C54.5404 21.5983 53.8438 21.6406 53.1481 21.682C53.1048 21.6823 53.0622 21.6927 53.0237 21.7123C52.9368 21.7715 52.9672 21.9159 53.0526 21.975C53.1436 22.026 53.249 22.0453 53.3522 22.0299L55.0614 21.9765C55.1503 21.9804 55.239 21.9657 55.3219 21.9332C55.3636 21.9172 55.3997 21.8891 55.4255 21.8526C55.4512 21.8161 55.4656 21.7728 55.4666 21.7282C55.4622 21.643 55.3609 21.5665 55.2379 21.555Z" fill="#FFAD7A"/>
<path d="M57.3827 17.4469C57.2264 17.4903 57.0658 17.5307 56.9051 17.5696C56.5723 17.6505 56.2351 17.7241 55.8921 17.7847C54.4778 18.0464 53.0372 18.1385 51.601 18.059C51.4968 18.059 51.3955 18.0474 51.2913 18.0388L51.1871 18.0315C50.9877 17.9703 50.7981 17.8809 50.6242 17.766C50.3834 17.6036 50.1741 17.3992 50.0062 17.1626C49.8528 16.6324 49.7114 16.0992 49.5822 15.5632C49.1275 13.7063 48.8227 11.8161 48.6704 9.91071C48.7565 9.46058 48.9682 9.04381 49.2811 8.70831C49.472 8.42157 49.7398 8.19402 50.054 8.05154C50.3345 7.91982 50.6279 7.81727 50.9295 7.74553L50.9701 7.73543L51.3912 7.63872C51.423 7.68346 51.452 7.72677 51.4824 7.77151C51.5736 7.90287 51.6575 8.03278 51.7472 8.16125C51.8369 8.28971 51.9064 8.38354 51.9961 8.48891C52.0584 8.56541 52.1409 8.678 52.2523 8.82523C53.6558 10.8353 54.9561 12.9151 56.1482 15.0566C56.4681 15.634 56.7734 16.2114 57.0484 16.7555C57.1237 16.9085 57.1931 17.0572 57.2713 17.2073C57.3133 17.2882 57.348 17.3676 57.3827 17.4469Z" fill="#3C5B7D"/>
<path d="M50.6242 17.7703C50.3834 17.6079 50.174 17.4035 50.0062 17.1669C49.8528 16.6367 49.7114 16.1036 49.5822 15.5676C49.9486 13.0806 50.1065 10.5675 50.054 8.05443C50.3345 7.9227 50.6279 7.82016 50.9295 7.74842L50.97 7.73831C51.1111 11.0862 50.9954 14.44 50.6242 17.7703Z" fill="#6C9DBA"/>
<path d="M51.6026 18.059C51.4984 18.059 51.397 18.0474 51.2928 18.0388C51.83 14.7747 51.9829 11.4592 51.7487 8.15979C51.8269 8.27094 51.9079 8.38208 51.9976 8.48745C52.0599 8.56396 52.1424 8.67655 52.2538 8.82378C52.252 11.9135 52.0344 14.9994 51.6026 18.059Z" fill="#6C9DBA"/>
<path d="M57.0484 16.7599C57.005 17.0312 56.9572 17.3026 56.9037 17.5711C56.5708 17.6519 56.2336 17.7255 55.8906 17.7862C56.0738 16.888 56.1625 15.9732 56.1555 15.0566C56.4681 15.6354 56.7734 16.207 57.0484 16.7599Z" fill="#6C9DBA"/>
<path d="M57.4494 17.5913C55.4363 18.0618 53.2727 18.313 51.5346 18.2639C51.104 18.2493 50.6896 18.0962 50.3534 17.8275C50.0172 17.5588 49.7772 17.1888 49.6691 16.7728C49.1508 14.7067 48.7517 12.6127 48.4737 10.5011C48.4057 10.0103 48.4894 9.51059 48.7135 9.06853C48.9377 8.62647 49.2918 8.26313 49.7284 8.02699C50.2046 7.77253 50.7055 7.56699 51.2234 7.41353C51.3218 7.53333 51.4072 7.6517 51.4883 7.7715C50.9433 7.91759 50.4166 8.12434 49.918 8.38786C49.5559 8.58418 49.2624 8.88598 49.0768 9.25298C48.8911 9.61999 48.8221 10.0347 48.8789 10.4419C49.1541 12.5381 49.5504 14.6168 50.0656 16.6675C50.1512 16.9958 50.3409 17.2877 50.6064 17.4997C50.8719 17.7117 51.199 17.8324 51.5389 17.8439C53.2191 17.8901 55.3104 17.6534 57.2641 17.2059C57.3322 17.3372 57.3929 17.4671 57.4494 17.5913Z" fill="#131C3B"/>
<path d="M49.9035 6.36704C49.3709 6.43921 48.8108 6.75099 48.2999 7.18258C47.7314 7.6685 47.255 8.25225 46.8932 8.90606L46.8151 8.98112L20.875 8.31569C20.875 8.32291 20.875 8.33013 20.875 8.3359C20.875 8.38065 20.8634 8.42828 20.8576 8.48024C20.2465 12.9798 20.1097 17.5308 20.4495 22.0588H20.4712L20.4495 22.0847C20.4495 22.0847 11.4419 22.1887 3.89172 21.441C4.56179 15.9313 5.50249 9.94823 6.33609 8.12083C6.35346 8.08618 6.36793 8.05298 6.38385 8.01978C6.39977 7.98658 6.39977 7.98659 6.40846 7.97071C6.63265 7.52467 6.89868 7.10081 7.20298 6.7048C8.54167 4.95823 10.5041 3.91317 12.4854 3.48014C14.924 2.9605 42.0884 4.53386 46.5864 5.35662C48.161 5.65397 49.1914 5.99751 49.9035 6.36704Z" fill="#2B3B59"/>
<path d="M49.9035 6.36704C49.371 6.43921 48.8109 6.75099 48.3 7.18258C47.8658 6.80296 47.1205 6.6947 46.4982 6.63696C36.961 5.77089 27.7305 5.56881 18.2512 5.09969C15.801 4.97844 13.128 4.99287 10.7256 5.46344C9.496 5.69413 8.30935 6.11234 7.2074 6.70336C8.54174 4.95823 10.5042 3.91317 12.4854 3.48014C14.924 2.9605 42.0885 4.53386 46.5865 5.35662C48.1611 5.65397 49.1915 5.99751 49.9035 6.36704Z" fill="#3C5B7D"/>
<path d="M6.40842 7.96926C7.28992 7.88292 8.1767 7.86313 9.06119 7.91008L9.24065 7.91729C10.3232 7.95049 11.4983 7.97359 12.6344 7.99957C15.6736 8.06453 18.7981 8.13381 20.872 8.33445C20.872 8.3792 20.8604 8.42683 20.8547 8.4788C18.7866 8.27671 15.662 8.20887 12.6315 8.14392C11.4969 8.11938 10.3159 8.09484 9.23631 8.06164L9.05685 8.05442C8.1451 8.02844 7.21597 7.99957 6.33606 8.12515" fill="#131C3B"/>
<path d="M15.5433 38.3668C15.4753 40.6663 13.8457 43.2905 10.2031 43.0508C10.0093 43.0453 9.81598 43.0284 9.62417 43.0003C8.46126 42.8256 7.4015 42.2357 6.64182 41.3404C5.88214 40.445 5.47421 39.305 5.49384 38.1322C5.51347 36.9594 5.95933 35.8336 6.74856 34.964C7.53779 34.0944 8.6167 33.5402 9.78481 33.4043C10.0178 33.3779 10.2524 33.3683 10.4867 33.3754C14.196 33.4865 15.6056 36.2637 15.5433 38.3668Z" fill="#212D4A"/>
<path d="M14.3393 38.3351C14.2785 40.418 12.6272 42.7607 9.62856 43.0017C8.46566 42.827 7.40589 42.2372 6.64621 41.3418C5.88653 40.4464 5.4786 39.3064 5.49824 38.1336C5.51787 36.9608 5.96373 35.835 6.75295 34.9654C7.54218 34.0958 8.6211 33.5416 9.78921 33.4057C12.8979 33.8777 14.3972 36.398 14.3393 38.3351Z" fill="#2B3B59"/>
<path d="M9.87164 41.7258C11.8243 41.7258 13.4072 40.147 13.4072 38.1994C13.4072 36.2519 11.8243 34.6731 9.87164 34.6731C7.91899 34.6731 6.33606 36.2519 6.33606 38.1994C6.33606 40.147 7.91899 41.7258 9.87164 41.7258Z" fill="#82A1B8"/>
<path d="M9.59527 40.1279C10.6671 40.1279 11.536 39.2612 11.536 38.1922C11.536 37.1232 10.6671 36.2565 9.59527 36.2565C8.52344 36.2565 7.65454 37.1232 7.65454 38.1922C7.65454 39.2612 8.52344 40.1279 9.59527 40.1279Z" fill="#AECAD6"/>
<path d="M18.3047 36.411L17.2801 36.4514L16.8589 36.4687C16.5033 36.4887 16.1501 36.3987 15.8478 36.2108C15.5455 36.023 15.3088 35.7465 15.17 35.4193C14.9401 34.8359 14.6623 34.2725 14.3393 33.7348C11.9706 33.2008 9.54052 32.9877 7.11473 33.1011C6.21745 33.755 5.6675 34.5662 5.19715 35.4828C5.10317 35.6487 4.95974 35.7814 4.78677 35.8623C4.6138 35.9433 4.41986 35.9686 4.23185 35.9346C3.55744 35.8249 2.99447 35.708 2.51978 35.5925C2.90698 34.3338 3.48063 33.1399 4.22172 32.0503C4.63232 31.4465 5.16222 30.9328 5.77893 30.5405C6.74788 29.9234 7.87117 29.5903 9.02073 29.5791C10.5548 29.562 12.0863 29.7071 13.5896 30.0122C15.1295 30.3196 16.4291 31.2535 17.1064 32.5468C17.7352 33.7527 18.1411 35.0616 18.3047 36.411Z" fill="#E5804E"/>
<path d="M18.3047 36.411L17.28 36.4514C17.034 34.8766 16.6186 33.2946 15.4652 32.238C14.3118 31.1814 12.6706 30.8927 11.1235 30.6502C9.35934 30.3802 7.48228 30.145 5.776 30.5318C6.74494 29.9147 7.86823 29.5816 9.01779 29.5705C10.5518 29.5533 12.0834 29.6985 13.5867 30.0035C15.1265 30.311 16.4262 31.2449 17.1035 32.5382C17.7335 33.7468 18.1404 35.0586 18.3047 36.411Z" fill="#FCB19F"/>
</svg>
