
<svg width="68" height="48" viewBox="0 0 68 48" fill="none" xmlns="http://www.w3.org/2000/svg">
<path d="M62.6285 29.4094H61.5619V30.5771H62.6285V29.4094Z" fill="#C16B46"/>
<path d="M58.604 34.7816L58.5083 36.8316L59.1355 36.8599L59.2313 34.81L58.604 34.7816Z" fill="#C3C5C8"/>
<path d="M55.81 36.5884L55.5887 37.1663L57.5416 37.8894L57.7628 37.3114L55.81 36.5884Z" fill="#C3C5C8"/>
<path d="M57.7787 38.7366L56.4761 40.3398L56.9666 40.7253L58.2692 39.1222L57.7787 38.7366Z" fill="#C3C5C8"/>
<path d="M59.6893 38.8211L59.1649 39.1608L60.3126 40.8746L60.837 40.5349L59.6893 38.8211Z" fill="#C3C5C8"/>
<path d="M61.85 36.8628L59.838 37.4068L60.0044 38.0022L62.0164 37.4583L61.85 36.8628Z" fill="#C3C5C8"/>
<path d="M46.8871 39.2198H39.8788C38.8539 39.2201 37.8341 39.0794 36.8489 38.8018L34.3483 38.098V35.7708H49.9389V36.2157C49.9389 37.012 49.6175 37.7757 49.0452 38.339C48.473 38.9022 47.6968 39.2191 46.8871 39.2198Z" fill="#1B1C20"/>
<path d="M50.0677 20.5645L46.5745 21.1901C46.515 21.201 46.454 21.2002 46.3949 21.1878C46.3358 21.1753 46.2797 21.1515 46.23 21.1176C46.1803 21.0838 46.1379 21.0406 46.1053 20.9906C46.0726 20.9405 46.0504 20.8846 46.0398 20.8261V20.7802C46.0287 20.722 46.0294 20.6621 46.0419 20.6041C46.0544 20.5461 46.0784 20.4911 46.1125 20.4423C46.1466 20.3934 46.1902 20.3517 46.2408 20.3194C46.2914 20.2872 46.3479 20.2651 46.4072 20.2544L49.9032 19.6288L50.0677 20.5645Z" fill="#1B1C20"/>
<path d="M58.8008 32.2948C57.6456 32.2948 56.5163 32.6318 55.5558 33.263C54.5953 33.8943 53.8467 34.7915 53.4048 35.8412C52.9628 36.8909 52.8473 38.0459 53.0729 39.1602C53.2984 40.2745 53.855 41.2979 54.672 42.1011C55.4891 42.9043 56.53 43.4511 57.6631 43.6724C58.7962 43.8938 59.9705 43.7796 61.0377 43.3445C62.1048 42.9093 63.0167 42.1727 63.6582 41.2278C64.2996 40.2829 64.6416 39.1721 64.6411 38.0359C64.6411 37.2818 64.49 36.535 64.1965 35.8383C63.9029 35.1416 63.4727 34.5086 62.9303 33.9754C62.388 33.4423 61.7441 33.0194 61.0356 32.7311C60.327 32.4427 59.5676 32.2945 58.8008 32.2948ZM58.8008 40.9483C58.2151 40.9483 57.6425 40.7775 57.1556 40.4575C56.6686 40.1375 56.289 39.6826 56.0649 39.1505C55.8408 38.6183 55.7821 38.0327 55.8964 37.4678C56.0106 36.9028 56.2927 36.3839 56.7068 35.9766C57.121 35.5693 57.6486 35.2919 58.2231 35.1796C58.7975 35.0672 59.3929 35.1249 59.934 35.3453C60.4751 35.5657 60.9376 35.939 61.263 36.4179C61.5884 36.8969 61.7621 37.4599 61.7621 38.0359C61.7621 38.8084 61.4501 39.5491 60.8947 40.0953C60.3394 40.6415 59.5862 40.9483 58.8008 40.9483Z" fill="#1B1C20"/>
<path d="M58.8008 34.56C58.1011 34.56 57.4171 34.7641 56.8354 35.1464C56.2536 35.5288 55.8003 36.0723 55.5327 36.7081C55.265 37.3438 55.1951 38.0434 55.3318 38.7183C55.4685 39.3932 55.8057 40.013 56.3006 40.4994C56.7956 40.9858 57.4261 41.3169 58.1124 41.4508C58.7987 41.5847 59.51 41.5154 60.1563 41.2517C60.8025 40.988 61.3548 40.5417 61.7431 39.9693C62.1314 39.3969 62.3384 38.7241 62.3379 38.0359C62.3379 37.5793 62.2464 37.127 62.0686 36.7051C61.8908 36.2832 61.6302 35.8999 61.3017 35.5771C60.9732 35.2543 60.5833 34.9983 60.1541 34.8238C59.725 34.6493 59.2651 34.5596 58.8008 34.56ZM58.8008 40.9483C58.2151 40.9483 57.6425 40.7775 57.1556 40.4575C56.6686 40.1375 56.289 39.6826 56.0649 39.1505C55.8408 38.6183 55.7821 38.0327 55.8964 37.4678C56.0106 36.9028 56.2927 36.3839 56.7068 35.9766C57.121 35.5693 57.6486 35.2919 58.223 35.1796C58.7975 35.0672 59.3929 35.1249 59.934 35.3453C60.4751 35.5657 60.9376 35.939 61.263 36.4179C61.5884 36.8969 61.7621 37.4599 61.7621 38.0359C61.7621 38.8084 61.4501 39.5491 60.8947 40.0953C60.3394 40.6415 59.5862 40.9483 58.8008 40.9483Z" fill="#98989C"/>
<path d="M60.5803 38.1384C60.5636 38.4911 60.441 38.831 60.228 39.1151C60.015 39.3992 59.7211 39.6149 59.3835 39.7348C59.0458 39.8546 58.6796 39.8734 58.3312 39.7886C57.9827 39.7038 57.6677 39.5194 57.4258 39.2585C57.1839 38.9976 57.0262 38.6721 56.9724 38.3231C56.9186 37.974 56.9713 37.6171 57.1237 37.2975C57.2762 36.9779 57.5216 36.7099 57.8288 36.5275C58.1361 36.345 58.4915 36.2562 58.8501 36.2724C59.0884 36.2828 59.3224 36.3393 59.5384 36.4388C59.7545 36.5383 59.9484 36.6787 60.1092 36.8521C60.2699 37.0255 60.3943 37.2283 60.4751 37.4491C60.556 37.6698 60.5917 37.9041 60.5803 38.1384Z" fill="#C3C5C8"/>
<path d="M59.0612 38.1843L58.9625 38.2436C58.8781 38.2919 58.7777 38.3053 58.6832 38.2811C58.5887 38.2568 58.5077 38.1968 58.458 38.1142L56.1493 34.2472L56.8841 33.8211L59.1928 37.6854C59.2179 37.7265 59.2344 37.7722 59.2414 37.8197C59.2484 37.8672 59.2456 37.9155 59.2334 37.962C59.2211 38.0084 59.1996 38.052 59.17 38.0902C59.1405 38.1283 59.1035 38.1603 59.0612 38.1843Z" fill="#EDEEEF"/>
<path d="M49.9603 21.8629L48.8707 22.4931L56.9354 35.9796L58.025 35.3494L49.9603 21.8629Z" fill="#A35940"/>
<path d="M56.2727 28.6759C51.9405 28.6759 51.0247 33.9074 51.0247 37.1353L51.0768 37.1838H52.7C52.9577 37.1886 53.2089 37.1038 53.4095 36.9446C53.6101 36.7853 53.7472 36.5616 53.7968 36.3128C54.2026 34.1285 56.078 32.8072 58.4005 32.8072H64.345V32.1762C63.6403 30.9843 61.1945 28.6759 56.2727 28.6759Z" fill="#C16B46"/>
<path d="M53.2813 35.849C53.1826 36.3883 52.6973 36.5798 52.1434 36.5798H51.033V37.1353L51.0851 37.1838H52.7083C52.966 37.1886 53.2172 37.1038 53.4178 36.9446C53.6184 36.7853 53.7555 36.5616 53.8051 36.3128C54.2109 34.1285 56.0863 32.8072 58.4088 32.8072H64.3533V32.1762H58.1044C55.6613 32.1843 53.7063 33.5622 53.2813 35.849Z" fill="#9B9B9B"/>
<path d="M56.9829 21.716H54.4274V25.084H56.9829V21.716Z" fill="#A35940"/>
<path d="M57.1639 25.2701H57.3723C57.5044 25.2694 57.6309 25.2175 57.7243 25.1256C57.8178 25.0337 57.8706 24.9093 57.8713 24.7793V22.0207C57.8706 21.8907 57.8178 21.7663 57.7243 21.6744C57.6309 21.5825 57.5044 21.5306 57.3723 21.5299H57.1639C57.1156 21.5306 57.0696 21.5499 57.0357 21.5838C57.0019 21.6176 56.9829 21.6631 56.9829 21.7106V25.0921C56.9836 25.1391 57.0029 25.184 57.0367 25.2172C57.0705 25.2504 57.1161 25.2694 57.1639 25.2701Z" fill="#1B1C20"/>
<path d="M34.3483 10.6679H33.7999C33.6221 10.6682 33.4483 10.6156 33.3014 10.5169C33.1546 10.4183 33.0416 10.2781 32.9773 10.1151L31.1951 5.66292L31.6941 5.46877L33.4791 9.91011C33.5039 9.97544 33.5484 10.0317 33.6068 10.0713C33.6652 10.1108 33.7345 10.1318 33.8054 10.1312H34.3538L34.3483 10.6679Z" fill="#9B9B9B"/>
<path d="M22.5031 27.0607H4.71619V24.4476H22.5031C22.7802 24.4476 23.0459 24.5559 23.2418 24.7486C23.4377 24.9412 23.5478 25.2026 23.5478 25.475V26.0333C23.5478 26.3057 23.4377 26.5671 23.2418 26.7597C23.0459 26.9524 22.7802 27.0607 22.5031 27.0607Z" fill="#1B1C20"/>
<path d="M18.5437 38.0575H48.0743C48.1484 38.0575 48.2217 38.0431 48.2901 38.0152C48.3585 37.9872 48.4206 37.9463 48.4728 37.8947C48.525 37.843 48.5664 37.7818 48.5944 37.7144C48.6225 37.647 48.6368 37.5748 48.6364 37.502V37.2836H18.5437V38.0575Z" fill="#1B1C20"/>
<path d="M15.2808 39.1713C15.2234 39.1713 15.1683 39.1488 15.1277 39.1089C15.087 39.0689 15.0642 39.0147 15.0642 38.9582C15.0639 38.93 15.0692 38.902 15.0799 38.8759C15.0906 38.8497 15.1065 38.8259 15.1267 38.8058C15.1468 38.7858 15.1708 38.7698 15.1973 38.759C15.2238 38.7481 15.2522 38.7425 15.2808 38.7425H19.0373C19.0839 38.7425 24.661 38.4728 27.5976 37.6072C27.6529 37.5908 27.7125 37.5966 27.7634 37.6234C27.8143 37.6502 27.8523 37.6958 27.8691 37.7501C27.8858 37.8045 27.8799 37.8631 27.8526 37.9132C27.8254 37.9633 27.779 38.0006 27.7237 38.0171C24.735 38.8935 19.2786 39.1605 19.0483 39.1713H15.2808Z" fill="black"/>
<path d="M15.2808 39.6647C15.2524 39.6647 15.2242 39.6592 15.1979 39.6485C15.1717 39.6378 15.1478 39.6221 15.1277 39.6023C15.1076 39.5826 15.0916 39.5591 15.0807 39.5332C15.0698 39.5074 15.0642 39.4797 15.0642 39.4517C15.0639 39.4235 15.0692 39.3955 15.0799 39.3693C15.0906 39.3432 15.1065 39.3194 15.1267 39.2993C15.1468 39.2792 15.1708 39.2633 15.1973 39.2524C15.2238 39.2416 15.2522 39.236 15.2808 39.236H19.0373C21.2333 39.1271 23.4218 38.902 25.5933 38.5618C25.6481 38.5566 25.7029 38.572 25.7468 38.6047C25.7907 38.6375 25.8205 38.6853 25.8302 38.7387C25.8398 38.792 25.8287 38.847 25.7991 38.8927C25.7694 38.9384 25.7233 38.9714 25.67 38.9852C23.4772 39.3339 21.2666 39.5652 19.0483 39.6782L15.2808 39.6647Z" fill="black"/>
<path d="M24.833 38.0927L24.4629 38.1378L24.6014 39.2377L24.9715 39.1926L24.833 38.0927Z" fill="black"/>
<path d="M20.0162 38.9744H16.2598C16.0185 38.9744 10.562 38.7047 7.57333 37.8202C7.54557 37.8122 7.51972 37.7988 7.49731 37.7809C7.47489 37.7629 7.45637 37.7407 7.44282 37.7155C7.42928 37.6904 7.42099 37.6629 7.41844 37.6345C7.4159 37.6062 7.41915 37.5776 7.428 37.5506C7.43617 37.5232 7.44976 37.4977 7.468 37.4756C7.48623 37.4534 7.50875 37.4351 7.53424 37.4215C7.55973 37.408 7.5877 37.3996 7.61653 37.3967C7.64536 37.3939 7.67447 37.3967 7.7022 37.4049C10.6388 38.2679 16.2159 38.5402 16.2735 38.5429H20.0162C20.0737 38.5429 20.1288 38.5654 20.1694 38.6053C20.21 38.6453 20.2328 38.6994 20.2328 38.7559C20.2332 38.7843 20.2279 38.8124 20.2172 38.8387C20.2065 38.865 20.1907 38.889 20.1705 38.9093C20.1504 38.9296 20.1264 38.9458 20.1 38.9569C20.0735 38.9681 20.045 38.974 20.0162 38.9744Z" fill="black"/>
<path d="M8.43688 37.2971H7.71301V38.1519H8.43688V37.2971Z" fill="black"/>
<path d="M49.9388 31.1569H48.6117C47.774 31.1431 46.9527 31.3863 46.2619 31.8526L42.0393 34.8674V36.693H49.9388V31.1569Z" fill="#C16B46"/>
<path d="M42.0915 28.0396H34.798V35.9838H42.0915V28.0396Z" fill="#C16B46"/>
<path d="M42.0915 29.8436H34.798V30.4207H42.0915V29.8436Z" fill="#1B1C20"/>
<path d="M34.7979 34.0854H23.9508V35.9838H34.7979V34.0854Z" fill="#C16B46"/>
<path d="M36.2264 26.427L35.2969 19.7474C35.2694 19.5512 35.1712 19.3712 35.0203 19.2401C34.8694 19.109 34.6757 19.0355 34.4743 19.0328H33.9808C33.8512 19.0328 33.723 19.0601 33.605 19.1128C33.487 19.1656 33.3819 19.2426 33.2967 19.3386C33.2114 19.4347 33.1481 19.5476 33.111 19.6698C33.0739 19.7919 33.0638 19.9204 33.0814 20.0467L34.3427 29.0831H43.0319C43.0941 29.0831 43.1556 29.0711 43.213 29.0476C43.2704 29.0241 43.3225 28.9897 43.3664 28.9463C43.4102 28.903 43.4449 28.8515 43.4684 28.7949C43.492 28.7384 43.5039 28.6778 43.5035 28.6166V27.476C43.5035 27.3773 43.4637 27.2826 43.3927 27.2128C43.3217 27.143 43.2255 27.1038 43.1251 27.1038H37.0161C36.8238 27.1031 36.6381 27.0343 36.4931 26.91C36.3481 26.7857 36.2534 26.6143 36.2264 26.427Z" fill="#1B1C20"/>
<path d="M35.2476 5.6899H34.3483V34.8189H35.2476V5.6899Z" fill="#9B9B9B"/>
<path d="M23.7013 20.6023C23.3996 20.34 23.0069 20.202 22.6045 20.2166H13.0598V20.7883H20.9922V21.7699H16.745V22.2014H20.9922V23.0103H19.2292V23.582H20.9922V25.2809H21.5708V23.582H23.545C23.7244 23.5813 23.8962 23.5109 24.0231 23.3862C24.1499 23.2614 24.2215 23.0924 24.2222 22.916V21.991C24.2392 21.7366 24.2015 21.4814 24.1118 21.2422C24.022 21.003 23.8822 20.7849 23.7013 20.6023ZM21.5708 20.7883H22.6429C22.8875 20.7854 23.1243 20.873 23.3064 21.0337C23.5056 21.2341 23.621 21.5006 23.63 21.7807H21.5708V20.7883ZM23.545 23.0184H21.5708V22.2094H23.6409V22.9214C23.6413 22.934 23.6391 22.9465 23.6344 22.9583C23.6298 22.9701 23.6228 22.9808 23.6138 22.9898C23.6049 22.9989 23.5942 23.0061 23.5823 23.011C23.5705 23.0159 23.5578 23.0184 23.545 23.0184Z" fill="#9B9B9B"/>
<path d="M34.798 6.27506H21.0636C20.5873 6.27506 20.1305 6.46115 19.7937 6.7924C19.4569 7.12364 19.2676 7.57291 19.2676 8.04136V21.1982H4.71619V7.93888C4.71608 7.25398 4.85641 6.57609 5.12879 5.94574C5.40117 5.3154 5.8 4.74555 6.30144 4.27027C6.80288 3.79499 7.39662 3.42404 8.04717 3.17961C8.69772 2.93517 9.39171 2.82227 10.0876 2.84765L35.0968 3.75371C35.203 3.75789 35.3085 3.77143 35.4122 3.79417L49.6702 6.58787C49.7479 6.60346 49.8176 6.64503 49.8676 6.7055C49.9176 6.76598 49.9447 6.84162 49.9444 6.91956V7.05708H46.5362L34.798 6.27506Z" fill="#1B1C20"/>
<path d="M56.0891 20.2544H52.6452C52.3889 20.2541 52.1396 20.1723 51.9345 20.0211C51.7294 19.87 51.5795 19.6576 51.5073 19.4157L48.2005 8.25439C48.18 8.18582 48.1761 8.11349 48.189 8.04316C48.202 7.97284 48.2315 7.90647 48.2752 7.84935C48.3189 7.79223 48.3756 7.74595 48.4407 7.71421C48.5058 7.68247 48.5775 7.66613 48.6502 7.66652H48.7023L48.3459 7.05708H46.528L48.8312 21.4382C48.9354 22.075 48.9354 22.7241 48.8312 23.3609L47.4355 31.7825C47.2963 32.6244 46.8572 33.3902 46.1966 33.943C45.5361 34.4958 44.6972 34.7995 43.8299 34.8H38.2144C37.6957 34.8 37.1981 34.5975 36.831 34.237C36.464 33.8765 36.2574 33.3875 36.2567 32.8773V26.7128C36.2567 26.5941 36.2087 26.4802 36.1234 26.3963C36.038 26.3123 35.9222 26.2652 35.8015 26.2652H33.7944C33.7344 26.2648 33.6749 26.2761 33.6194 26.2985C33.5639 26.3208 33.5133 26.3537 33.4708 26.3953C33.4282 26.4369 33.3945 26.4864 33.3714 26.5409C33.3484 26.5954 33.3365 26.6538 33.3365 26.7128V32.8773C33.3365 33.3872 33.1305 33.8763 32.7639 34.2369C32.3973 34.5974 31.9 34.8 31.3815 34.8H27.4194C26.5931 34.8015 25.7907 34.5274 25.1432 34.0224C24.4958 33.5174 24.0416 32.8114 23.8549 32.0198L22.5388 26.4593C22.4587 26.1197 22.3391 25.7904 22.1823 25.4778L20.3452 21.8238C20.2501 21.6363 20.1038 21.4784 19.9227 21.3679C19.7416 21.2575 19.5329 21.1987 19.3197 21.1982H4.71619V33.2144C4.71948 34.2411 5.08811 35.2342 5.75812 36.0216L6.30651 36.6715C6.46758 36.8627 6.6695 37.0167 6.89792 37.1225C7.12634 37.2283 7.37564 37.2833 7.62812 37.2836H48.9738C49.7713 37.2836 50.5498 37.0447 51.2057 36.5986C51.8617 36.1525 52.3638 35.5204 52.6452 34.7865L56.4181 24.8602C56.7028 24.1143 56.8208 23.3168 56.764 22.522C56.7073 21.7273 56.4771 20.9538 56.0891 20.2544Z" fill="#E5804E"/>
<path d="M21.4055 39.4318C22.1329 36.3428 20.1764 33.2588 17.0356 32.5434C13.8947 31.828 10.7588 33.7521 10.0314 36.8411C9.30394 39.93 11.2604 43.0141 14.4013 43.7295C17.5422 44.4449 20.678 42.5208 21.4055 39.4318Z" fill="#1B1C20"/>
<path d="M19.1592 38.9316C19.6079 37.0618 18.4304 35.1882 16.5292 34.7469C14.628 34.3056 12.7229 35.4636 12.2742 37.3334C11.8254 39.2033 13.0029 41.0768 14.9042 41.5181C16.8054 41.9595 18.7105 40.8014 19.1592 38.9316Z" fill="#98989C"/>
<path d="M18.4708 38.7718C18.8298 37.2759 17.8878 35.7771 16.3668 35.424C14.8458 35.071 13.3217 35.9974 12.9627 37.4933C12.6038 38.9891 13.5458 40.488 15.0668 40.841C16.5878 41.1941 18.1118 40.2677 18.4708 38.7718Z" fill="#C3C5C8"/>
<path d="M17.6662 38.1357C17.6657 38.5148 17.5509 38.8852 17.3364 39.2002C17.1218 39.5151 16.8171 39.7605 16.4609 39.9052C16.1046 40.0499 15.7127 40.0875 15.3347 40.0132C14.9567 39.9389 14.6096 39.7561 14.3372 39.4878C14.0649 39.2196 13.8795 38.8779 13.8045 38.5061C13.7295 38.1342 13.7682 37.7489 13.9159 37.3987C14.0635 37.0485 14.3134 36.7492 14.6339 36.5387C14.9545 36.3281 15.3313 36.2157 15.7167 36.2157C15.973 36.2157 16.2267 36.2654 16.4634 36.3619C16.7001 36.4585 16.9151 36.5999 17.0962 36.7783C17.2773 36.9566 17.4208 37.1683 17.5186 37.4012C17.6164 37.6341 17.6666 37.8837 17.6662 38.1357Z" fill="#EDEEEF"/>
<path d="M15.7168 29.7735C11.4394 29.7735 7.96809 32.8234 7.94067 37.2324L7.99277 37.2836H9.97519C10.2333 37.2882 10.4848 37.2031 10.6855 37.0433C10.8861 36.8835 11.023 36.6592 11.072 36.4099C11.475 34.2283 13.4081 32.9043 15.7333 32.9043C18.0584 32.9043 19.986 34.2202 20.3945 36.4099C20.4436 36.6592 20.5804 36.8835 20.781 37.0433C20.9817 37.2031 21.2332 37.2882 21.4913 37.2836H23.5258C23.4957 32.8476 20.0162 29.7735 15.7168 29.7735Z" fill="#C16B46"/>
<path d="M42.8044 37.2836H25.0997V37.1569C25.0997 36.9423 25.1864 36.7365 25.3407 36.5848C25.4949 36.4331 25.7042 36.3479 25.9223 36.3479H42.7934C45.4888 36.3479 46.7994 34.9348 47.3176 32.3164C47.537 31.1973 48.8805 22.1285 48.8943 22.045H48.982C49.0443 22.0451 49.1059 22.058 49.1629 22.0827C49.2199 22.1073 49.2712 22.1433 49.3134 22.1884C49.3556 22.2335 49.3879 22.2866 49.4082 22.3445C49.4286 22.4024 49.4366 22.4639 49.4317 22.525C49.2809 24.4126 48.4528 31.5694 48.2581 32.5618C47.633 35.7789 46.1304 37.2836 42.8044 37.2836Z" fill="#9B9B9B"/>
<path d="M5.12737 34.6571H4.52963C4.43241 34.6571 4.33614 34.6382 4.24632 34.6017C4.1565 34.5651 4.07489 34.5114 4.00614 34.4438C3.9374 34.3762 3.88287 34.2959 3.84566 34.2076C3.80846 34.1193 3.78931 34.0246 3.78931 33.929V32.222C3.78931 32.1264 3.80846 32.0317 3.84566 31.9434C3.88287 31.8551 3.9374 31.7748 4.00614 31.7072C4.07489 31.6396 4.1565 31.5859 4.24632 31.5493C4.33614 31.5128 4.43241 31.4939 4.52963 31.4939H5.12737V34.6571Z" fill="#9B9B9B"/>
<path d="M52.3847 20.2544H56.089L48.7105 7.67191H48.3897C48.317 7.67153 48.2452 7.68786 48.1801 7.7196C48.115 7.75135 48.0583 7.79762 48.0147 7.85474C47.971 7.91185 47.9415 7.97823 47.9285 8.04855C47.9155 8.11888 47.9195 8.19121 47.94 8.25978L51.2468 19.4157C51.319 19.6576 51.4688 19.87 51.6739 20.0211C51.879 20.1723 52.1284 20.2541 52.3847 20.2544Z" fill="#8CC8DD"/>
<path d="M56.3797 20.8638H48.7489L48.8394 21.4382C48.8394 21.4679 48.8394 21.5002 48.8531 21.5299H56.6018C56.541 21.3038 56.4669 21.0814 56.3797 20.8638Z" fill="#1B1C20"/>
<path d="M16.6051 23.2423H16.5557C16.4212 23.2423 16.2922 23.1897 16.197 23.0961C16.1019 23.0026 16.0485 22.8757 16.0485 22.7434V20.4944H17.1151V22.7353C17.1162 22.8017 17.1038 22.8677 17.0786 22.9293C17.0534 22.991 17.016 23.047 16.9685 23.0942C16.921 23.1415 16.8644 23.1789 16.802 23.2043C16.7396 23.2297 16.6726 23.2426 16.6051 23.2423Z" fill="#1B1C20"/>
<path d="M17.4441 21.9856H15.7167V22.4171H17.4441V21.9856Z" fill="#C16B46"/>
<path d="M7.54031 23.2423H7.49096C7.35617 23.2423 7.22686 23.1898 7.1313 23.0963C7.03573 23.0028 6.98168 22.8759 6.98096 22.7434V20.4944H8.05031V22.7353C8.05141 22.8017 8.039 22.8677 8.01383 22.9293C7.98866 22.991 7.95122 23.047 7.90372 23.0942C7.85621 23.1415 7.7996 23.1789 7.73719 23.2043C7.67479 23.2297 7.60785 23.2426 7.54031 23.2423Z" fill="#1B1C20"/>
<path d="M8.37928 21.9856H6.65186V22.4171H8.37928V21.9856Z" fill="#C16B46"/>
<path d="M50.3282 27.236L56.2042 27.4166C56.2782 27.4199 56.3522 27.4084 56.4216 27.3828C56.491 27.3571 56.5544 27.3179 56.608 27.2675C56.6615 27.2171 56.7042 27.1565 56.7333 27.0895C56.7623 27.0224 56.7773 26.9502 56.7772 26.8773V26.8099C56.7773 26.737 56.7623 26.6648 56.7333 26.5977C56.7042 26.5307 56.6615 26.4701 56.608 26.4197C56.5544 26.3693 56.491 26.3301 56.4216 26.3044C56.3522 26.2788 56.2782 26.2673 56.2042 26.2706L50.3282 26.4485C50.2239 26.4527 50.1253 26.4962 50.0528 26.57C49.9803 26.6438 49.9395 26.7423 49.9388 26.8449C49.9395 26.947 49.9805 27.0449 50.0531 27.1179C50.1258 27.1908 50.2244 27.2332 50.3282 27.236Z" fill="#9B9B9B"/>
<path d="M53.0153 24.1969H50.3447C50.1917 24.1969 50.0677 24.3188 50.0677 24.4692V25.4427C50.0677 25.5931 50.1917 25.715 50.3447 25.715H53.0153C53.1683 25.715 53.2923 25.5931 53.2923 25.4427V24.4692C53.2923 24.3188 53.1683 24.1969 53.0153 24.1969Z" fill="#1B1C20"/>
<path d="M52.9495 24.4395H50.4105C50.3393 24.4395 50.2816 24.4963 50.2816 24.5663V25.3483C50.2816 25.4183 50.3393 25.475 50.4105 25.475H52.9495C53.0207 25.475 53.0784 25.4183 53.0784 25.3483V24.5663C53.0784 24.4963 53.0207 24.4395 52.9495 24.4395Z" fill="#F7AF2C"/>
<path d="M63.0014 29.8652L61.71 29.7222C61.4763 29.6958 61.2607 29.5859 61.104 29.4134C60.9473 29.2409 60.8605 29.0178 60.86 28.7865V28.5654C60.8605 28.3344 60.9475 28.1116 61.1042 27.9396C61.261 27.7675 61.4766 27.6582 61.71 27.6324L63.0014 27.4867V29.8652Z" fill="#E5804E"/>
<path d="M63.1057 29.973H63.2482C63.2937 29.9734 63.3388 29.9648 63.3809 29.9479C63.423 29.931 63.4612 29.9059 63.4933 29.8743C63.5255 29.8427 63.5509 29.8051 63.5682 29.7637C63.5854 29.7223 63.5941 29.678 63.5937 29.6333V27.7187C63.5937 27.6285 63.5573 27.5421 63.4925 27.4784C63.4277 27.4147 63.3399 27.3789 63.2482 27.3789H63.1057C63.0722 27.3789 63.0401 27.3919 63.0165 27.4152C62.9928 27.4385 62.9795 27.47 62.9795 27.5029V29.849C62.9791 29.8654 62.9822 29.8817 62.9884 29.8969C62.9946 29.9121 63.0038 29.9259 63.0156 29.9375C63.0274 29.9491 63.0415 29.9582 63.0569 29.9643C63.0724 29.9704 63.089 29.9734 63.1057 29.973Z" fill="#1B1C20"/>

</svg>

