<svg width="30" height="40" viewBox="0 0 30 40" fill="none" xmlns="http://www.w3.org/2000/svg">
<path d="M5 0C2.24219 0 0 2.24219 0 5V35C0 37.7578 2.24219 40 5 40H25C27.7578 40 30 37.7578 30 35V12.5H20C18.6172 12.5 17.5 11.3828 17.5 10V0H5ZM20 0V10H30L20 0ZM5 20C5 19.337 5.26339 18.7011 5.73223 18.2322C6.20107 17.7634 6.83696 17.5 7.5 17.5C8.16304 17.5 8.79893 17.7634 9.26777 18.2322C9.73661 18.7011 10 19.337 10 20C10 20.663 9.73661 21.2989 9.26777 21.7678C8.79893 22.2366 8.16304 22.5 7.5 22.5C6.83696 22.5 6.20107 22.2366 5.73223 21.7678C5.26339 21.2989 5 20.663 5 20ZM16.875 22.5C17.2891 22.5 17.6719 22.7031 17.9062 23.0391L24.7813 33.0391C25.0469 33.4219 25.0703 33.9219 24.8594 34.3281C24.6484 34.7344 24.2188 35 23.75 35H16.875H13.75H10H6.25C5.79687 35 5.38281 34.7578 5.16406 34.3672C4.94531 33.9766 4.94531 33.4922 5.17969 33.1094L8.92969 26.8594C9.15625 26.4844 9.5625 26.25 10 26.25C10.4375 26.25 10.8437 26.4766 11.0703 26.8594L12.0703 28.5313L15.8438 23.0469C16.0781 22.7109 16.4609 22.5078 16.875 22.5078V22.5Z" fill="#FB8049"/>
</svg>
