<!-- <svg width="130" height="130" viewBox="0 0 130 130" fill="none" xmlns="http://www.w3.org/2000/svg">
<path d="M102.411 49.9695L68.6115 36.635C64.8914 35.1674 60.686 36.9934 59.2184 40.7134L42.2246 83.7884C40.757 87.5085 42.5829 91.714 46.303 93.1816L80.1028 106.516C83.8228 107.984 88.0283 106.158 89.4959 102.438L106.49 59.3627C107.957 55.6426 106.131 51.4372 102.411 49.9695Z" fill="#F9B3A0"/>
<path d="M92.3573 36.4884L51.9887 29.7693C48.0439 29.1127 44.3137 31.7783 43.6571 35.7231L36.0542 81.4007C35.3976 85.3455 38.0633 89.0757 42.0081 89.7323L82.3767 96.4515C86.3215 97.1081 90.0517 94.4425 90.7083 90.4976L98.3112 44.8201C98.9678 40.8752 96.3021 37.145 92.3573 36.4884Z" fill="#F49278"/>
<path d="M83.0569 28.145H35.4639C31.4648 28.145 28.2229 31.3869 28.2229 35.386V84.526C28.2229 88.5251 31.4648 91.767 35.4639 91.767H83.0569C87.056 91.767 90.2979 88.5251 90.2979 84.526V35.386C90.2979 31.3869 87.056 28.145 83.0569 28.145Z" fill="#FB8049"/>
<path d="M71.604 51.428C75.8903 51.428 79.365 47.9533 79.365 43.667C79.365 39.3807 75.8903 35.906 71.604 35.906C67.3177 35.906 63.843 39.3807 63.843 43.667C63.843 47.9533 67.3177 51.428 71.604 51.428Z" fill="#F2E77C"/>
<path d="M70.837 58.305L59.592 77.805C59.5768 77.8363 59.5696 77.871 59.5713 77.9058C59.5729 77.9406 59.5833 77.9745 59.6014 78.0042C59.6195 78.034 59.6448 78.0587 59.675 78.0762C59.7051 78.0936 59.7392 78.1032 59.774 78.104H83.525C83.5666 78.105 83.6076 78.0949 83.6439 78.0747C83.6803 78.0546 83.7106 78.0251 83.7317 77.9894C83.7529 77.9536 83.7642 77.9129 83.7644 77.8714C83.7647 77.8298 83.7538 77.789 83.733 77.753L72.514 58.305C72.4277 58.1595 72.305 58.039 72.158 57.9553C72.011 57.8716 71.8447 57.8275 71.6755 57.8275C71.5064 57.8275 71.3401 57.8716 71.1931 57.9553C71.0461 58.039 70.9234 58.1595 70.837 58.305Z" fill="#B4FF9F"/>
<path d="M51.4411 48.997L34.7881 77.831C34.7682 77.8679 34.758 77.9093 34.7586 77.9513C34.7591 77.9932 34.7703 78.0343 34.7911 78.0707C34.8119 78.1072 34.8416 78.1377 34.8775 78.1594C34.9134 78.1812 34.9542 78.1934 34.9961 78.195H69.5631C69.605 78.1934 69.6458 78.1812 69.6817 78.1594C69.7176 78.1377 69.7473 78.1072 69.7681 78.0707C69.7889 78.0343 69.8001 77.9932 69.8007 77.9513C69.8012 77.9093 69.791 77.8679 69.7711 77.831L53.1181 48.997C53.0344 48.8482 52.9127 48.7244 52.7653 48.6382C52.618 48.552 52.4503 48.5066 52.2796 48.5066C52.1089 48.5066 51.9413 48.552 51.7939 48.6382C51.6466 48.7244 51.5248 48.8482 51.4411 48.997Z" fill="#A9E895"/>
</svg> -->


<svg width="148" height="113" viewBox="0 0 148 113" fill="none" xmlns="http://www.w3.org/2000/svg">
<path fill-rule="evenodd" clip-rule="evenodd" d="M73.0984 109.886C65.314 108.495 56.8606 97.8517 48.9959 97.033C36.6123 95.7438 20.2198 114.464 13.8494 103.719C6.91002 92.0131 25.3241 80.2864 22.4715 66.967C19.6748 53.9088 1.81633 52.7598 0.0989396 39.5147C-1.3225 28.5521 12.8723 21.1002 22.4715 15.694C31.0741 10.849 41.4013 10.9028 51.2615 10.7001C58.7501 10.5461 68.5859 12.2245 75.9207 10.7001C85.8731 8.63158 89.6058 0.493194 99.7682 0.618502C109.386 0.737092 124.117 5.62204 124.238 15.2837C124.416 29.5204 112.073 38.8867 117.205 52.1584C123.515 68.4754 137.859 57.9608 146.598 73.1053C152.215 82.8403 139.229 95.1612 130.56 102.287C122.128 109.218 110.47 110.25 99.6686 111.679C90.7561 112.858 81.9488 111.469 73.0984 109.886Z" fill="#E2F7ED"/>


</svg>
