<svg width="42" height="42" viewBox="0 0 42 42" fill="none" xmlns="http://www.w3.org/2000/svg">
<circle cx="21" cy="21" r="20.5" stroke="#242D45" stroke-dasharray="3 3"/>
<circle cx="21" cy="21" r="18" fill="#242D45"/>
<path d="M21.3438 30.625C18.6999 30.625 16.1643 29.5747 14.2948 27.7052C12.4253 25.8357 11.375 23.3001 11.375 20.6562C11.375 16.6172 13.6953 12.9958 17.2879 11.4321C17.4145 11.377 17.5548 11.3612 17.6906 11.3869C17.8263 11.4126 17.9511 11.4786 18.0487 11.5762C18.1464 11.6739 18.2124 11.7987 18.2381 11.9344C18.2638 12.0701 18.248 12.2104 18.1929 12.3371C17.7804 13.2841 17.5625 14.4971 17.5625 15.8437C17.5625 20.5823 21.4177 24.4375 26.1563 24.4375C27.5029 24.4375 28.7159 24.2196 29.6629 23.8071C29.7895 23.7519 29.9298 23.7362 30.0656 23.7619C30.2013 23.7876 30.3261 23.8536 30.4237 23.9512C30.5214 24.0489 30.5874 24.1737 30.6131 24.3094C30.6388 24.4451 30.623 24.5854 30.5679 24.7121C29.0042 28.3047 25.3828 30.625 21.3438 30.625Z" fill="#FB8049"/>
</svg>
