<svg width="42" height="42" viewBox="0 0 42 42" fill="none" xmlns="http://www.w3.org/2000/svg">
<circle cx="21" cy="21" r="20.5" stroke="white" stroke-dasharray="3 3"/>
<circle cx="21" cy="21" r="18" fill="white"/>
<path d="M32.861 19.917C30.6956 15.692 26.4086 12.8333 21.5 12.8333C16.5913 12.8333 12.3032 15.694 10.1389 19.9174C10.0476 20.0981 10 20.2977 10 20.5002C10 20.7027 10.0476 20.9023 10.1389 21.083C12.3044 25.308 16.5913 28.1667 21.5 28.1667C26.4086 28.1667 30.6968 25.3061 32.861 21.0826C32.9524 20.9019 33 20.7023 33 20.4998C33 20.2973 32.9524 20.0977 32.861 19.917ZM21.5 26.25C20.3627 26.25 19.251 25.9128 18.3054 25.281C17.3599 24.6491 16.6229 23.7511 16.1877 22.7004C15.7525 21.6498 15.6386 20.4936 15.8605 19.3782C16.0823 18.2628 16.63 17.2383 17.4341 16.4341C18.2383 15.63 19.2628 15.0824 20.3782 14.8605C21.4936 14.6386 22.6497 14.7525 23.7004 15.1877C24.7511 15.6229 25.6491 16.3599 26.2809 17.3055C26.9127 18.2511 27.25 19.3628 27.25 20.5C27.2503 21.2552 27.1019 22.0031 26.813 22.7009C26.5242 23.3987 26.1007 24.0327 25.5667 24.5667C25.0327 25.1007 24.3986 25.5242 23.7008 25.8131C23.0031 26.1019 22.2552 26.2504 21.5 26.25ZM21.5 16.6667C21.1578 16.6715 20.8179 16.7224 20.4893 16.818C20.7602 17.186 20.8901 17.6389 20.8556 18.0946C20.8212 18.5502 20.6246 18.9784 20.3015 19.3015C19.9784 19.6246 19.5502 19.8212 19.0945 19.8557C18.6389 19.8901 18.186 19.7602 17.818 19.4894C17.6084 20.2615 17.6462 21.0798 17.9261 21.8293C18.206 22.5788 18.7139 23.2216 19.3783 23.6673C20.0427 24.113 20.8301 24.3391 21.6297 24.3139C22.4294 24.2886 23.2009 24.0132 23.8359 23.5265C24.4708 23.0397 24.9371 22.3661 25.1691 21.6005C25.4012 20.8349 25.3873 20.0157 25.1294 19.2584C24.8715 18.5011 24.3826 17.8437 23.7316 17.3788C23.0805 16.9138 22.3 16.6648 21.5 16.6667Z" fill="#34A853"/>
</svg>
