<svg width="72" height="36" viewBox="0 0 72 36" fill="none" xmlns="http://www.w3.org/2000/svg">
<g clip-path="url(#clip0_135_1178)">
<path d="M5.89868 29.2722H64.808L62.4164 17.7186H5.89868V29.2722Z" fill="#1C2948"/>
<path d="M49.6509 15.1194C48.7679 15.0762 47.8504 15.0542 46.8982 15.0534C46.8982 15.0534 41.6222 9.06477 35.5204 7.02657C41.792 9.05217 49.6509 15.1194 49.6509 15.1194Z" fill="#163560"/>
<path d="M1.86401 19.6122V13.0032C1.86401 13.0032 7.79518 12.1164 11.3824 10.4172C19.6864 6.42837 24.1486 6.35457 31.6896 6.35457C37.4152 6.35457 43.2138 11.3688 45.6743 13.7832C46.5046 14.596 47.5088 15.0484 48.5458 15.0768C57.6031 15.336 63.2017 17.7006 65.9824 19.2966C66.6199 19.6636 67.1619 20.2655 67.5422 21.0287C67.9225 21.7919 68.1247 22.6834 68.124 23.5944V25.8204C68.2139 25.8204 68.3001 25.8671 68.3637 25.9502C68.4273 26.0334 68.463 26.1462 68.463 26.2638V29.9574C68.463 30.0156 68.4542 30.0733 68.4372 30.127C68.4202 30.1808 68.3952 30.2297 68.3637 30.2709C68.3322 30.3121 68.2949 30.3447 68.2537 30.367C68.2126 30.3893 68.1685 30.4008 68.124 30.4008H62.7172C63.2719 29.1019 63.5486 27.6315 63.5182 26.1444C63.4338 21.7356 60.6806 18.1458 57.3095 18.048C56.1904 18.0149 55.0845 18.369 54.1036 19.0744C53.1227 19.7798 52.3017 20.8115 51.7237 22.0652C51.1456 23.3188 50.831 24.7499 50.8117 26.2136C50.7924 27.6773 51.0691 29.1218 51.6137 30.4008H18.3601C18.9148 29.1019 19.1915 27.6315 19.1611 26.1444C19.0767 21.7356 16.3235 18.1458 12.9524 18.048C11.8333 18.0149 10.7273 18.369 9.74647 19.0744C8.76561 19.7798 7.94462 20.8115 7.36657 22.0652C6.78852 23.3188 6.47392 24.7499 6.4546 26.2136C6.43529 27.6773 6.71194 29.1218 7.25656 30.4008H5.92884C1.33365 30.4008 0.682641 24.255 0.639515 21.2418C0.636339 21.029 0.665681 20.8175 0.725823 20.6198C0.785964 20.4221 0.875694 20.242 0.989747 20.0902C1.1038 19.9384 1.23988 19.818 1.39001 19.7359C1.54014 19.6538 1.70129 19.6117 1.86401 19.6122Z" fill="#F1A34F"/>
<path d="M34.5989 7.54797C39.8451 9.28437 45.4721 15.2196 45.4721 15.2196L30.5818 14.7996C30.2955 14.7915 30.0167 14.6787 29.7771 14.4737C29.5374 14.2688 29.3465 13.9801 29.2261 13.6404L26.9441 7.20117H32.4651C33.1846 7.20124 33.9013 7.31772 34.5989 7.54797Z" fill="#163560"/>
<path d="M26.0667 7.35178L28.1574 13.6152C28.1943 13.7261 28.2095 13.8472 28.2017 13.9677C28.1939 14.0882 28.1633 14.2043 28.1127 14.3055C28.062 14.4067 27.9929 14.4898 27.9116 14.5473C27.8302 14.6049 27.7392 14.6351 27.6468 14.6352C25.5364 14.6352 19.9984 14.5338 16.8098 13.4892C16.636 13.4311 16.4771 13.3134 16.3496 13.1484C16.222 12.9833 16.1305 12.7767 16.0843 12.5499C16.0381 12.3232 16.039 12.0844 16.0868 11.8582C16.1347 11.632 16.2278 11.4266 16.3565 11.2632C17.6526 9.63837 20.4695 7.35178 26.0667 7.35178Z" fill="#163560"/>
<path d="M67.7346 21.4722H65.5591C65.5591 21.4722 62.0012 17.1294 56.2916 15.8982C56.2921 15.8964 66.8391 17.4162 67.7346 21.4722Z" fill="#B64C41"/>
<path d="M1.86401 19.6122H2.44025C2.59794 19.6125 2.75249 19.5544 2.88598 19.4446C3.01947 19.3348 3.12643 19.1778 3.19449 18.9918C3.52711 18.0708 4.25841 16.3206 5.38014 15.0774C5.81415 14.5974 5.55448 13.668 4.98513 13.668H1.86401V19.6122Z" fill="#B64C41"/>
<path d="M30.4234 16.6416H33.3174C33.3942 16.6416 33.4678 16.6017 33.5221 16.5307C33.5764 16.4597 33.6069 16.3634 33.6069 16.263C33.607 16.2132 33.5995 16.164 33.585 16.118C33.5705 16.072 33.5492 16.0303 33.5223 15.9951C33.4954 15.9599 33.4634 15.932 33.4283 15.913C33.3931 15.894 33.3555 15.8843 33.3174 15.8844H30.4234C30.3466 15.8844 30.273 15.9243 30.2187 15.9953C30.1644 16.0663 30.1339 16.1626 30.1339 16.263C30.134 16.3633 30.1646 16.4595 30.2188 16.5305C30.2731 16.6015 30.3467 16.6414 30.4234 16.6416Z" fill="#163560"/>
<path d="M17.6287 16.6416H20.5227C20.5995 16.6416 20.6731 16.6017 20.7274 16.5307C20.7817 16.4597 20.8122 16.3634 20.8122 16.263C20.8123 16.2132 20.8048 16.164 20.7903 16.118C20.7758 16.072 20.7545 16.0303 20.7276 15.9951C20.7007 15.9599 20.6687 15.932 20.6336 15.913C20.5984 15.894 20.5608 15.8843 20.5227 15.8844H17.6287C17.5519 15.8844 17.4783 15.9243 17.424 15.9953C17.3697 16.0663 17.3392 16.1626 17.3392 16.263C17.3394 16.3633 17.3699 16.4595 17.4242 16.5305C17.4784 16.6015 17.552 16.6414 17.6287 16.6416Z" fill="#163560"/>
<path d="M20.0778 19.098H46.1711C46.4166 19.098 46.6577 19.1834 46.8696 19.3455C47.0816 19.5076 47.2567 19.7406 47.377 20.0204C47.4973 20.3003 47.5585 20.617 47.5543 20.9381C47.55 21.2591 47.4806 21.5729 47.353 21.8472L45.6724 25.4598C45.5861 25.6458 45.4713 25.8066 45.3352 25.932C45.1992 26.0574 45.0449 26.1447 44.8819 26.1886C44.7188 26.2325 44.5507 26.2319 44.3878 26.1869C44.225 26.1419 44.071 26.0535 43.9355 25.9272C41.7053 23.847 35.2791 19.5312 20.0778 19.098Z" fill="#DD7F30"/>
<path d="M29.6022 3.18238H30.9405C31.026 3.18251 31.1094 3.21716 31.1793 3.28159C31.2492 3.34603 31.3021 3.4371 31.3309 3.54238L32.1191 6.41038H29.1875V3.72598C29.1871 3.65456 29.1976 3.58376 29.2183 3.51767C29.239 3.45158 29.2695 3.39152 29.3081 3.34096C29.3467 3.2904 29.3925 3.25035 29.443 3.22313C29.4935 3.19591 29.5476 3.18206 29.6022 3.18238Z" fill="#F1A34F"/>
<path d="M29.1875 6.36297V4.40157H29.7614C29.9547 4.40161 30.1432 4.47981 30.3012 4.62547C30.4591 4.77113 30.5788 4.97711 30.6437 5.21517L30.957 6.36297H29.1875Z" fill="#163560"/>
<path d="M37.2331 20.0694H35.2526V22.6596H37.2331V20.0694Z" fill="#163560"/>
<path d="M35.2525 22.6596H33.272V25.2498H35.2525V22.6596Z" fill="#163560"/>
<path d="M33.2723 20.0694H31.2917V22.6596H33.2723V20.0694Z" fill="#163560"/>
<path d="M31.292 22.6596H29.3114V25.2498H31.292V22.6596Z" fill="#163560"/>
<path d="M29.3118 20.0694H27.3312V22.6596H29.3118V20.0694Z" fill="#163560"/>
<path d="M15.0715 32.9674C17.8432 31.2941 19.0528 26.9991 17.7733 23.3744C16.4938 19.7496 13.2097 18.1677 10.438 19.841C7.66641 21.5144 6.4568 25.8093 7.7363 29.4341C9.0158 33.0588 12.2999 34.6408 15.0715 32.9674Z" fill="#2D3A62"/>
<path d="M12.7566 21.9204C13.434 21.9204 14.0962 22.1831 14.6594 22.6753C15.2226 23.1675 15.6616 23.867 15.9208 24.6855C16.18 25.5039 16.2478 26.4046 16.1156 27.2734C15.9834 28.1423 15.6572 28.9403 15.1782 29.5667C14.6992 30.1931 14.0889 30.6196 13.4245 30.7924C12.7601 30.9651 12.0715 30.8764 11.4457 30.5373C10.8199 30.1982 10.285 29.624 9.90875 28.8873C9.53248 28.1507 9.3317 27.2847 9.33179 26.3988C9.33179 25.8106 9.42038 25.2282 9.5925 24.6848C9.76462 24.1414 10.0169 23.6477 10.3349 23.2319C10.653 22.816 11.0305 22.4861 11.446 22.2611C11.8615 22.0361 12.3069 21.9203 12.7566 21.9204ZM12.2873 22.4112C11.5585 22.5577 10.8941 23.0414 10.415 23.7744L11.6019 24.7344C11.7979 24.5016 12.0325 24.3313 12.2873 24.237V22.4112ZM13.2255 22.4112V24.2358C13.4804 24.3301 13.7152 24.5004 13.9114 24.7332L15.0982 23.7732C14.6189 23.0405 13.9543 22.5572 13.2255 22.4112ZM15.6006 27.963C15.7604 27.4645 15.8421 26.9291 15.841 26.3886C15.8399 25.8481 15.756 25.3134 15.5942 24.816L14.4082 25.776C14.4529 25.979 14.4756 26.1893 14.4757 26.4006C14.4758 26.605 14.4545 26.8085 14.4124 27.0054L15.6006 27.963ZM13.2255 30.387C13.9592 30.2386 14.6272 29.7485 15.1065 29.007L13.9215 28.047C13.723 28.2873 13.4839 28.4628 13.2237 28.5594L13.2255 30.387ZM13.5338 26.3988C13.5333 26.1977 13.4873 26.0014 13.4016 25.8345C13.3158 25.6677 13.1942 25.5378 13.0521 25.4613C12.9099 25.3848 12.7536 25.3651 12.6029 25.4047C12.4522 25.4444 12.3138 25.5415 12.2053 25.6839C12.0968 25.8263 12.023 26.0076 11.9932 26.2048C11.9635 26.4021 11.9791 26.6064 12.0381 26.7921C12.0971 26.9777 12.1968 27.1363 12.3247 27.2479C12.4526 27.3594 12.6029 27.4189 12.7566 27.4188C12.8589 27.4189 12.9602 27.3925 13.0547 27.3412C13.1492 27.29 13.2351 27.2148 13.3073 27.12C13.3795 27.0252 13.4367 26.9127 13.4755 26.7889C13.5144 26.6652 13.5342 26.5326 13.5338 26.3988ZM12.2873 30.387V28.5624C12.0272 28.4657 11.7883 28.2901 11.5899 28.05L10.4044 29.01C10.8847 29.7507 11.5533 30.2397 12.2873 30.387ZM11.1004 27.0036C11.0145 26.6012 11.0161 26.1754 11.105 25.7742L9.91857 24.8142C9.75671 25.3116 9.67278 25.8463 9.67176 26.3869C9.67073 26.9274 9.75264 27.4628 9.91261 27.9612L11.1004 27.0036Z" fill="#98BDF4"/>
<path d="M61.069 31.5211C63.2276 28.6981 63.2276 24.121 61.069 21.298C58.9104 18.475 55.4106 18.475 53.252 21.298C51.0934 24.121 51.0934 28.6981 53.252 31.5211C55.4106 34.3441 58.9104 34.3441 61.069 31.5211Z" fill="#2D3A62"/>
<path d="M57.1604 21.9312C57.8377 21.9313 58.4997 22.1941 59.0628 22.6862C59.6259 23.1784 60.0647 23.8779 60.3238 24.6962C60.5829 25.5145 60.6507 26.415 60.5185 27.2836C60.3863 28.1523 60.0601 28.9502 59.5812 29.5765C59.1023 30.2028 58.4921 30.6292 57.8279 30.802C57.1636 30.9747 56.4751 30.886 55.8494 30.547C55.2237 30.2081 54.6889 29.634 54.3127 28.8976C53.9364 28.1611 53.7356 27.2953 53.7356 26.4096C53.7356 25.8214 53.8242 25.239 53.9963 24.6956C54.1684 24.1523 54.4207 23.6585 54.7387 23.2427C55.0568 22.8268 55.4343 22.4969 55.8498 22.2719C56.2653 22.0469 56.7107 21.9311 57.1604 21.9312ZM56.6911 22.422C55.9623 22.5685 55.2979 23.0522 54.8188 23.7852L56.0057 24.7452C56.2016 24.5122 56.4362 24.3419 56.6911 24.2478V22.422ZM57.6293 22.422V24.2466C57.8843 24.3408 58.119 24.5111 58.3152 24.744L59.5021 23.784C59.0227 23.0513 58.3581 22.568 57.6293 22.422ZM60.0044 27.9738C60.1642 27.4752 60.2459 26.9397 60.2448 26.3991C60.2437 25.8585 60.1598 25.3237 59.998 24.8262L58.812 25.7862C58.8568 25.9894 58.8795 26.1999 58.8795 26.4114C58.8796 26.6156 58.8583 26.8189 58.8162 27.0156L60.0044 27.9738ZM57.6293 30.3972C58.363 30.2489 59.0311 29.7588 59.5103 29.0172L58.3248 28.0572C58.1265 28.2974 57.8876 28.4728 57.6275 28.569L57.6293 30.3972ZM57.9376 26.4096C57.9371 26.2085 57.8911 26.0122 57.8054 25.8453C57.7197 25.6785 57.598 25.5486 57.4559 25.4721C57.3137 25.3956 57.1574 25.3759 57.0067 25.4155C56.856 25.4552 56.7176 25.5523 56.6091 25.6947C56.5006 25.8371 56.4268 26.0184 56.397 26.2156C56.3673 26.4129 56.3829 26.6172 56.4419 26.8029C56.5009 26.9885 56.6006 27.1471 56.7285 27.2587C56.8564 27.3702 57.0067 27.4297 57.1604 27.4296C57.2627 27.4296 57.364 27.4032 57.4585 27.3519C57.5529 27.3006 57.6387 27.2254 57.7109 27.1306C57.7831 27.0359 57.8403 26.9234 57.8792 26.7997C57.9181 26.6759 57.938 26.5434 57.9376 26.4096ZM56.6911 30.3972V28.5726C56.431 28.4763 56.1921 28.3009 55.9937 28.0608L54.8082 29.0208C55.2885 29.7613 55.9571 30.2501 56.6911 30.3972ZM55.5042 27.0138C55.4183 26.6114 55.4199 26.1856 55.5088 25.7844L54.3224 24.8244C54.1606 25.3219 54.0767 25.8567 54.0756 26.3973C54.0745 26.9379 54.1562 27.4734 54.316 27.972L55.5042 27.0138Z" fill="#98BDF4"/>
</g>
<defs>
<clipPath id="clip0_135_1178">
<rect width="72" height="36" fill="white"/>
</clipPath>
</defs>
</svg>
